<svg xmlns="http://www.w3.org/2000/svg" xmlns:xlink="http://www.w3.org/1999/xlink" viewBox="0 0 95.481 84.80619434840877" height="84.80619434840877" width="95.481" data-background-color="#010536" preserveAspectRatio="xMidYMid meet" id="tight-bounds"><g><svg viewBox="0 0 95.481 84.80619434840877" height="84.80619434840877" width="95.481"><g><svg viewBox="0 0 95.481 84.80619434840877" height="84.80619434840877" width="95.481"><g id="textblocktransform"><svg viewBox="0 0 95.481 84.80619434840877" height="84.80619434840877" width="95.481" id="textblock"><g><svg viewBox="0 0 95.481 84.80619434840877" height="84.80619434840877" width="95.481"><g><svg viewBox="0 0 95.481 84.80619434840877" height="84.80619434840877" width="95.481"><g><svg xmlns="http://www.w3.org/2000/svg" data-name="Layer 1" viewBox="1.6995575428009033 7.099557399749756 96.60089874267578 85.80088806152344" x="0" y="0" height="84.80619434840877" width="95.481" class="icon-icon-0" data-fill-palette-color="accent" id="icon-0"><g data-name="Group" fill="#ffff00" data-fill-palette-color="accent"><path data-name="Compound Path" d="M86.8 7.1H13.2A11.4 11.4 0 0 0 1.7 18.6V81.4A11.4 11.4 0 0 0 13.2 92.9H86.8A11.4 11.4 0 0 0 98.3 81.4V18.6A11.4 11.4 0 0 0 86.8 7.1Zm-73.6 7H86.8a4.5 4.5 0 0 1 4.5 4.5v5.7H8.7V18.6A4.5 4.5 0 0 1 13.2 14.1ZM86.8 85.9H13.2a4.5 4.5 0 0 1-4.5-4.5V31.3H91.3V81.4A4.5 4.5 0 0 1 86.8 85.9Z" fill="#ffff00" data-fill-palette-color="accent"/><circle data-name="Path" cx="62.7" cy="19.2" r="3.3" fill="#ffff00" data-fill-palette-color="accent"/><path data-name="Path" d="M72.3 22.4a3.2 3.2 0 0 0 3.3-3.2 3.3 3.3 0 0 0-3.3-3.3 3.2 3.2 0 0 0-3.2 3.3A3.2 3.2 0 0 0 72.3 22.4Z" fill="#ffff00" data-fill-palette-color="accent"/><circle data-name="Path" cx="81.9" cy="19.2" r="3.3" fill="#ffff00" data-fill-palette-color="accent"/><path data-name="Compound Path" d="M50 32.6A26.2 26.2 0 1 0 76.2 58.8 26.2 26.2 0 0 0 50 32.6ZM67.3 71l-2.7-2.1a31 31 0 0 0 1.3-7.6h5.2A21.7 21.7 0 0 1 67.3 71ZM28.9 61.3h5.2a31 31 0 0 0 1.3 7.6A18.6 18.6 0 0 0 32.6 71 22.8 22.8 0 0 1 28.9 61.3Zm3.7-14.7a18.6 18.6 0 0 0 2.8 2.1 31 31 0 0 0-1.3 7.6H28.9A22.8 22.8 0 0 1 32.6 46.6ZM47.5 48a24.4 24.4 0 0 1-5.9-1.5 18.5 18.5 0 0 1 5.9-7.3Zm0 5v3.3H39.1a27.2 27.2 0 0 1 0.8-5.1A24.8 24.8 0 0 0 47.5 53Zm0 8.3v3.3a25 25 0 0 0-7.6 1.9 29.7 29.7 0 0 1-0.8-5.2Zm0 8.3v8.9a20.1 20.1 0 0 1-5.9-7.3A20.7 20.7 0 0 1 47.5 69.6Zm5 0a20.7 20.7 0 0 1 5.9 1.6 21.1 21.1 0 0 1-5.9 7.3Zm0-5V61.3h8.4a29.7 29.7 0 0 1-0.8 5.2A25 25 0 0 0 52.5 64.6Zm0-8.3V53a25 25 0 0 0 7.6-1.9 29.7 29.7 0 0 1 0.8 5.2Zm0-8.3V39.2a19.9 19.9 0 0 1 5.9 7.2A20.7 20.7 0 0 1 52.5 48Zm8.2-7.5A19.9 19.9 0 0 1 64 42.9l-1.3 1A37.9 37.9 0 0 0 60.7 40.5ZM37.3 44L36 42.9a19.9 19.9 0 0 1 3.3-2.4A19.9 19.9 0 0 0 37.3 44Zm0 29.7a23.3 23.3 0 0 0 2 3.4A19.9 19.9 0 0 1 36 74.7Zm25.4 0l1.3 1a19.9 19.9 0 0 1-3.3 2.4A37.9 37.9 0 0 0 62.7 73.7Zm3.2-17.4a31 31 0 0 0-1.3-7.6 13.9 13.9 0 0 0 2.7-2.1 21.7 21.7 0 0 1 3.8 9.7Z" fill="#ffff00" data-fill-palette-color="accent"/></g></svg></g></svg></g></svg></g></svg></g></svg></g></svg></g><defs><mask/></defs></svg>